dummy_motion.mot										
nRows=123										
nColumns=11										
name dummy_motion.mot										
datacolumns 11										
datarows 123										
range 37.51 38.73										
endheader										
time	pelvis_tilt	pelvis_tx	pelvis_ty	hip_flexion_r	knee_angle_r	ankle_angle_r	hip_flexion_l	knee_angle_l	ankle_angle_l	lumbar_extension
37.51	0	0	0	-18.57873832	-73.82328203	6.509704336	-18.57873832	-73.82328203	6.509704336	0
37.52	0	0	0	-20.86009633	-25.03545042	-11.49555137	-20.86009633	-25.03545042	-11.49555137	0
37.53	0	0	0	48.04376819	9.188235664	-48.39803909	48.04376819	9.188235664	-48.39803909	0
37.54	0	0	0	-39.12674602	-40.70250428	11.84150836	-39.12674602	-40.70250428	11.84150836	0
37.55	0	0	0	-47.41993025	-65.72736516	22.33103925	-47.41993025	-65.72736516	22.33103925	0
37.56	0	0	0	64.51129468	-0.184957887	6.320973801	64.51129468	-0.184957887	6.320973801	0
37.57	0	0	0	9.729325467	-65.26697278	-7.031049544	9.729325467	-65.26697278	-7.031049544	0
37.58	0	0	0	-42.47040651	-79.84376545	7.740283088	-42.47040651	-79.84376545	7.740283088	0
37.59	0	0	0	29.1072004	-2.20765627	25.66566178	29.1072004	-2.20765627	25.66566178	0
37.6	0	0	0	-37.21479045	7.66323978	11.40231961	-37.21479045	7.66323978	11.40231961	0
37.61	0	0	0	-58.02743963	-15.05827915	9.072389342	-58.02743963	-15.05827915	9.072389342	0
37.62	0	0	0	44.94040338	-15.14104981	12.90863425	44.94040338	-15.14104981	12.90863425	0
37.63	0	0	0	14.95303012	-30.50527733	1.509743613	14.95303012	-30.50527733	1.509743613	0
37.64	0	0	0	49.56163729	-25.81824618	9.715951547	49.56163729	-25.81824618	9.715951547	0
37.65	0	0	0	-15.56136955	-70.45466383	25.2589336	-15.56136955	-70.45466383	25.2589336	0
37.66	0	0	0	65.41489227	-18.02275995	5.179430163	65.41489227	-18.02275995	5.179430163	0
37.67	0	0	0	47.99870489	-5.700229247	-18.16322907	47.99870489	-5.700229247	-18.16322907	0
37.68	0	0	0	-6.177129342	-9.079518635	4.009074801	-6.177129342	-9.079518635	4.009074801	0
37.69	0	0	0	-2.057422705	-70.97597104	17.38563958	-2.057422705	-70.97597104	17.38563958	0
37.7	0	0	0	-9.528313592	2.395206546	2.715384149	-9.528313592	2.395206546	2.715384149	0
37.71	0	0	0	-40.03712208	-47.42213542	-20.38752562	-40.03712208	-47.42213542	-20.38752562	0
37.72	0	0	0	-17.71040549	-50.77978632	-20.75110697	-17.71040549	-50.77978632	-20.75110697	0
37.73	0	0	0	73.48032258	6.098606141	-45.0189234	73.48032258	6.098606141	-45.0189234	0
37.74	0	0	0	-31.48164822	-71.82631014	-22.38509772	-31.48164822	-71.82631014	-22.38509772	0
37.75	0	0	0	-50.92356908	-12.15583144	-17.42414425	-50.92356908	-12.15583144	-17.42414425	0
37.76	0	0	0	48.48833204	-46.18650752	26.43249214	48.48833204	-46.18650752	26.43249214	0
37.77	0	0	0	28.39386307	-72.01602979	-2.311842976	28.39386307	-72.01602979	-2.311842976	0
37.78	0	0	0	52.15685422	8.153259798	-38.00482741	52.15685422	8.153259798	-38.00482741	0
37.79	0	0	0	-0.903645487	-19.05418229	4.94098123	-0.903645487	-19.05418229	4.94098123	0
37.8	0	0	0	13.34766266	-5.404124598	-9.716471835	13.34766266	-5.404124598	-9.716471835	0
37.81	0	0	0	-40.17173594	6.636908115	-20.20505886	-40.17173594	6.636908115	-20.20505886	0
37.82	0	0	0	71.46419443	-23.19013318	-39.24057073	71.46419443	-23.19013318	-39.24057073	0
37.83	0	0	0	64.66346661	-77.43579252	-2.9870052	64.66346661	-77.43579252	-2.9870052	0
37.84	0	0	0	-60.89247699	-35.38302956	3.144715315	-60.89247699	-35.38302956	3.144715315	0
37.85	0	0	0	18.05311686	-63.46453377	37.17738969	18.05311686	-63.46453377	37.17738969	0
37.86	0	0	0	-66.15707327	-24.70667727	34.71259183	-66.15707327	-24.70667727	34.71259183	0
37.87	0	0	0	29.26850426	-45.94301245	-28.92648207	29.26850426	-45.94301245	-28.92648207	0
37.88	0	0	0	-37.5134537	-23.02919403	-15.77000596	-37.5134537	-23.02919403	-15.77000596	0
37.89	0	0	0	-66.25061955	-3.757426707	-5.134637837	-66.25061955	-3.757426707	-5.134637837	0
37.9	0	0	0	52.58360219	-12.37750889	-3.448756646	52.58360219	-12.37750889	-3.448756646	0
37.91	0	0	0	13.73313373	-46.20682729	3.03447742	13.73313373	-46.20682729	3.03447742	0
37.92	0	0	0	48.19211848	-18.0773099	35.25952411	48.19211848	-18.0773099	35.25952411	0
37.93	0	0	0	-43.3199296	-75.25972441	-29.74274357	-43.3199296	-75.25972441	-29.74274357	0
37.94	0	0	0	-52.55572926	-7.544607711	-3.566274903	-52.55572926	-7.544607711	-3.566274903	0
37.95	0	0	0	38.62266061	-14.73476036	35.11314961	38.62266061	-14.73476036	35.11314961	0
37.96	0	0	0	-23.64129799	-76.79246753	-37.68605566	-23.64129799	-76.79246753	-37.68605566	0
37.97	0	0	0	77.00703706	-34.84468661	-11.77542618	77.00703706	-34.84468661	-11.77542618	0
37.98	0	0	0	-33.92741043	3.528885646	-19.37291672	-33.92741043	3.528885646	-19.37291672	0
37.99	0	0	0	82.8985547	-57.68044497	-35.60461178	82.8985547	-57.68044497	-35.60461178	0
38	0	0	0	44.72327881	2.90138633	-49.51374781	44.72327881	2.90138633	-49.51374781	0
38.01	0	0	0	84.80499451	-66.32542156	-26.08251819	84.80499451	-66.32542156	-26.08251819	0
38.02	0	0	0	35.41007325	-59.3134606	-9.162556339	35.41007325	-59.3134606	-9.162556339	0
38.03	0	0	0	6.506426365	-4.769390586	-17.6082703	6.506426365	-4.769390586	-17.6082703	0
38.04	0	0	0	17.34059495	-9.581138226	-19.51869078	17.34059495	-9.581138226	-19.51869078	0
38.05	0	0	0	-3.69544522	-17.00841522	26.59756624	-3.69544522	-17.00841522	26.59756624	0
38.06	0	0	0	15.8306418	-3.690236384	24.22807263	15.8306418	-3.690236384	24.22807263	0
38.07	0	0	0	-63.96740778	-68.33238434	-37.90642893	-63.96740778	-68.33238434	-37.90642893	0
38.08	0	0	0	16.35517823	-65.46780477	17.51258356	16.35517823	-65.46780477	17.51258356	0
38.09	0	0	0	61.17612835	-61.84841097	-13.63656716	61.17612835	-61.84841097	-13.63656716	0
38.1	0	0	0	-29.02172317	-32.10683129	0.670139494	-29.02172317	-32.10683129	0.670139494	0
38.11	0	0	0	10.46526305	-1.026382403	-23.9297455	10.46526305	-1.026382403	-23.9297455	0
38.12	0	0	0	-56.96755218	-27.09312605	14.52892305	-56.96755218	-27.09312605	14.52892305	0
38.13	0	0	0	41.82555514	-50.6730859	-26.3362063	41.82555514	-50.6730859	-26.3362063	0
38.14	0	0	0	78.94614957	-18.28533641	-29.81798278	78.94614957	-18.28533641	-29.81798278	0
38.15	0	0	0	61.12434507	-73.20619019	26.04763386	61.12434507	-73.20619019	26.04763386	0
38.16	0	0	0	86.10407274	-54.15340736	34.23514589	86.10407274	-54.15340736	34.23514589	0
38.17	0	0	0	38.34591406	-26.65307015	34.0878365	38.34591406	-26.65307015	34.0878365	0
38.18	0	0	0	6.318632349	-64.41295145	-8.644208265	6.318632349	-64.41295145	-8.644208265	0
38.19	0	0	0	74.78596176	-61.0113678	7.026239926	74.78596176	-61.0113678	7.026239926	0
38.2	0	0	0	-10.02644777	0.234536273	14.87187902	-10.02644777	0.234536273	14.87187902	0
38.21	0	0	0	-16.18946947	-0.983228744	-30.1348102	-16.18946947	-0.983228744	-30.1348102	0
38.22	0	0	0	76.29398107	-63.29982271	27.50729067	76.29398107	-63.29982271	27.50729067	0
38.23	0	0	0	16.09241653	-52.84229251	-35.7609879	16.09241653	-52.84229251	-35.7609879	0
38.24	0	0	0	-67.12831037	-48.56298795	39.66387717	-67.12831037	-48.56298795	39.66387717	0
38.25	0	0	0	40.449825	-64.06979849	19.64448847	40.449825	-64.06979849	19.64448847	0
38.26	0	0	0	31.84443279	-63.80867921	-29.98780003	31.84443279	-63.80867921	-29.98780003	0
38.27	0	0	0	-1.528523088	-9.669796105	3.889075533	-1.528523088	-9.669796105	3.889075533	0
38.28	0	0	0	-44.48257266	-19.1401285	9.276025735	-44.48257266	-19.1401285	9.276025735	0
38.29	0	0	0	59.51881567	-31.4403253	9.493841706	59.51881567	-31.4403253	9.493841706	0
38.3	0	0	0	-38.23555165	-24.08211771	-40.04437998	-38.23555165	-24.08211771	-40.04437998	0
38.31	0	0	0	-66.91513245	-56.39652395	-27.32860588	-66.91513245	-56.39652395	-27.32860588	0
38.32	0	0	0	81.33147149	-51.9036563	31.48294282	81.33147149	-51.9036563	31.48294282	0
38.33	0	0	0	-65.68946983	-3.166078923	22.4691576	-65.68946983	-3.166078923	22.4691576	0
38.34	0	0	0	-18.14069576	-74.68192804	-35.96172008	-18.14069576	-74.68192804	-35.96172008	0
38.35	0	0	0	-67.41963124	-49.72733382	-36.90630726	-67.41963124	-49.72733382	-36.90630726	0
38.36	0	0	0	12.23363107	4.824014734	-34.70753317	12.23363107	4.824014734	-34.70753317	0
38.37	0	0	0	21.51841981	-68.27842829	-23.82473219	21.51841981	-68.27842829	-23.82473219	0
38.38	0	0	0	63.98281787	-11.9208639	14.03991116	63.98281787	-11.9208639	14.03991116	0
38.39	0	0	0	8.332980835	-74.00617878	36.36243517	8.332980835	-74.00617878	36.36243517	0
38.4	0	0	0	-55.34178617	5.321061002	-17.27360035	-55.34178617	5.321061002	-17.27360035	0
38.41	0	0	0	49.51411539	-21.16963948	-10.96249178	49.51411539	-21.16963948	-10.96249178	0
38.42	0	0	0	33.38512156	-70.70782135	-7.257067571	33.38512156	-70.70782135	-7.257067571	0
38.43	0	0	0	44.64278856	-43.9759199	-40.62830459	44.64278856	-43.9759199	-40.62830459	0
38.44	0	0	0	-28.49039269	-28.68118957	15.32252684	-28.49039269	-28.68118957	15.32252684	0
38.45	0	0	0	-53.93265499	-23.12081078	22.06144166	-53.93265499	-23.12081078	22.06144166	0
38.46	0	0	0	-67.67054811	-55.72087232	-21.80536567	-67.67054811	-55.72087232	-21.80536567	0
38.47	0	0	0	39.06138693	-13.39150703	14.05677941	39.06138693	-13.39150703	14.05677941	0
38.48	0	0	0	-67.249527	-46.36240709	-49.61521899	-67.249527	-46.36240709	-49.61521899	0
38.49	0	0	0	19.73187893	-10.43220836	17.27656269	19.73187893	-10.43220836	17.27656269	0
38.5	0	0	0	56.97783911	-13.15378461	15.64529254	56.97783911	-13.15378461	15.64529254	0
38.51	0	0	0	38.93443054	4.957869364	-39.46485431	38.93443054	4.957869364	-39.46485431	0
38.52	0	0	0	-20.83446106	-71.19774355	21.74181175	-20.83446106	-71.19774355	21.74181175	0
38.53	0	0	0	-15.07585429	-51.25828533	13.61748011	-15.07585429	-51.25828533	13.61748011	0
38.54	0	0	0	65.04841559	-79.94501075	-8.310816388	65.04841559	-79.94501075	-8.310816388	0
38.55	0	0	0	66.93983274	-35.18628702	-34.85269261	66.93983274	-35.18628702	-34.85269261	0
38.56	0	0	0	-43.79290936	7.153410314	2.05557744	-43.79290936	7.153410314	2.05557744	0
38.57	0	0	0	43.84437059	-77.83631824	39.38590518	43.84437059	-77.83631824	39.38590518	0
38.58	0	0	0	-46.48453591	-35.00628365	20.67167854	-46.48453591	-35.00628365	20.67167854	0
38.59	0	0	0	-18.54339223	-42.53812826	28.60518148	-18.54339223	-42.53812826	28.60518148	0
38.6	0	0	0	-9.901537641	-5.553911756	-17.30079388	-9.901537641	-5.553911756	-17.30079388	0
38.61	0	0	0	-7.759938647	-15.31564338	16.45804217	-7.759938647	-15.31564338	16.45804217	0
38.62	0	0	0	72.62896192	-76.22244392	13.89453349	72.62896192	-76.22244392	13.89453349	0
38.63	0	0	0	79.84464906	-11.18885048	-15.4596513	79.84464906	-11.18885048	-15.4596513	0
38.64	0	0	0	-37.14310837	-63.52753128	-21.88308515	-37.14310837	-63.52753128	-21.88308515	0
38.65	0	0	0	-33.7446576	-26.35475012	8.470970781	-33.7446576	-26.35475012	8.470970781	0
38.66	0	0	0	-7.004466229	-26.0421685	14.54288181	-7.004466229	-26.0421685	14.54288181	0
38.67	0	0	0	3.275729444	-3.741387891	3.747201456	3.275729444	-3.741387891	3.747201456	0
38.68	0	0	0	-33.56091521	-2.65599737	-30.72176802	-33.56091521	-2.65599737	-30.72176802	0
38.69	0	0	0	72.5321618	-66.21695205	-6.2831163	72.5321618	-66.21695205	-6.2831163	0
38.7	0	0	0	3.461226326	-13.80623019	-38.56512618	3.461226326	-13.80623019	-38.56512618	0
38.71	0	0	0	58.5678176	-2.274405243	-11.22283087	58.5678176	-2.274405243	-11.22283087	0
38.72	0	0	0	18.78441669	5.445683324	-49.23083399	18.78441669	5.445683324	-49.23083399	0
38.73	0	0	0	13.6266504	-45.50871666	2.504215181	13.6266504	-45.50871666	2.504215181	0
